<svg width="684.3625244140625px" height="124.00000610351562px" xmlns="http://www.w3.org/2000/svg" viewBox="-92.18126220703124 12.999996948242192 684.3625244140625 124.00000610351562" style="background: none;" preserveAspectRatio="xMidYMid"><defs><linearGradient id="editing-gradient-gradient" x1="0" x2="1" y1="0.5" y2="0.5" gradientUnits="objectBoundingBox"><stop offset="0" stop-color="#ff5df6"></stop><stop offset="1" stop-color="#ff2323"></stop></linearGradient></defs><g><g transform="translate(5.434978485107422, 98.04499244689941)"><path d="M41.16-33.91L41.16-28.81L41.16-28.81Q41.16-19.44 33.16-18.13L33.16-18.13L41.59 0L34.50 0L26.19-17.91L12.16-17.91L12.16 0L5.75 0L5.75-44.81L30.28-44.81L30.28-44.81Q41.16-44.81 41.16-33.91L41.16-33.91ZM12.16-38.41L12.16-24.31L29.94-24.31L29.94-24.31Q32.50-24.31 33.63-25.44L33.63-25.44L33.63-25.44Q34.75-26.56 34.75-29.13L34.75-29.13L34.75-33.59L34.75-33.59Q34.75-36.16 33.63-37.28L33.63-37.28L33.63-37.28Q32.50-38.41 29.94-38.41L29.94-38.41L12.16-38.41ZM79.38-27.13L79.38-13.50L57.34-13.50L57.34-6.16L79.38-6.16L79.38 0L57.34 0L57.34 0Q56.09 0 54.97-0.48L54.97-0.48L54.97-0.48Q53.84-0.97 53.02-1.80L53.02-1.80L53.02-1.80Q52.19-2.63 51.70-3.75L51.70-3.75L51.70-3.75Q51.22-4.88 51.22-6.16L51.22-6.16L51.22-27.13L51.22-27.13Q51.22-28.41 51.70-29.53L51.70-29.53L51.70-29.53Q52.19-30.66 53.02-31.48L53.02-31.48L53.02-31.48Q53.84-32.31 54.97-32.80L54.97-32.80L54.97-32.80Q56.09-33.28 57.34-33.28L57.34-33.28L73.22-33.28L73.22-33.28Q74.50-33.28 75.63-32.80L75.63-32.80L75.63-32.80Q76.75-32.31 77.58-31.48L77.58-31.48L77.58-31.48Q78.41-30.66 78.89-29.53L78.89-29.53L78.89-29.53Q79.38-28.41 79.38-27.13L79.38-27.13ZM73.22-27.13L57.34-27.13L57.34-19.66L73.22-19.66L73.22-27.13ZM105.50 0L99.09 0L85.78-33.28L92.19-33.28L102.28-7.38L112.41-33.28L118.81-33.28L105.50 0ZM154-27.13L154-6.16L154-6.16Q154-4.88 153.52-3.75L153.52-3.75L153.52-3.75Q153.03-2.63 152.20-1.80L152.20-1.80L152.20-1.80Q151.38-0.97 150.27-0.48L150.27-0.48L150.27-0.48Q149.16 0 147.88 0L147.88 0L131.34 0L131.34 0Q130.09 0 128.97-0.48L128.97-0.48L128.97-0.48Q127.84-0.97 127.02-1.80L127.02-1.80L127.02-1.80Q126.19-2.63 125.70-3.75L125.70-3.75L125.70-3.75Q125.22-4.88 125.22-6.16L125.22-6.16L125.22-27.13L125.22-27.13Q125.22-28.41 125.70-29.53L125.70-29.53L125.70-29.53Q126.19-30.66 127.02-31.48L127.02-31.48L127.02-31.48Q127.84-32.31 128.97-32.80L128.97-32.80L128.97-32.80Q130.09-33.28 131.34-33.28L131.34-33.28L147.88-33.28L147.88-33.28Q149.16-33.28 150.27-32.80L150.27-32.80L150.27-32.80Q151.38-32.31 152.20-31.48L152.20-31.48L152.20-31.48Q153.03-30.66 153.52-29.53L153.52-29.53L153.52-29.53Q154-28.41 154-27.13L154-27.13ZM147.88-27.13L131.34-27.13L131.34-6.16L147.88-6.16L147.88-27.13ZM164.25-46.09L170.38-46.09L170.38 0L164.25 0L164.25-46.09ZM178.69-27.13L178.69-33.28L186.81-33.28L186.81-43.53L192.97-43.53L192.97-33.28L203.91-33.28L203.91-27.13L192.97-27.13L192.97-6.16L203.91-6.16L203.91 0L192.97 0L192.97 0Q191.72 0 190.59-0.48L190.59-0.48L190.59-0.48Q189.47-0.97 188.63-1.80L188.63-1.80L188.63-1.80Q187.78-2.63 187.30-3.75L187.30-3.75L187.30-3.75Q186.81-4.88 186.81-6.16L186.81-6.16L186.81-27.13L178.69-27.13ZM263.16-23.38L263.16-23.38L263.16-23.38Q264.56-22.94 265.72-22.13L265.72-22.13L265.72-22.13Q266.88-21.31 267.69-20.05L267.69-20.05L267.69-20.05Q268.50-18.78 268.94-17.06L268.94-17.06L268.94-17.06Q269.38-15.34 269.38-13.13L269.38-13.13L269.38-10.88L269.38-10.88Q269.38 0 258.50 0L258.50 0L233.97 0L233.97-44.81L257.22-44.81L257.22-44.81Q268.09-44.81 268.09-33.91L268.09-33.91L268.09-33.09L268.09-33.09Q268.09-29.31 266.89-26.92L266.89-26.92L266.89-26.92Q265.69-24.53 263.16-23.38ZM258.31-19.53L240.25-19.53L240.25-6.28L258.31-6.28L258.31-6.28Q260.84-6.28 261.97-7.47L261.97-7.47L261.97-7.47Q263.09-8.66 263.09-11.19L263.09-11.19L263.09-14.66L263.09-14.66Q263.09-17.22 261.97-18.38L261.97-18.38L261.97-18.38Q260.84-19.53 258.31-19.53L258.31-19.53ZM257.03-38.53L240.25-38.53L240.25-25.78L257.47-25.78L257.47-25.78Q259.78-25.88 260.80-27.05L260.80-27.05L260.80-27.05Q261.81-28.22 261.81-30.66L261.81-30.66L261.81-33.59L261.81-33.59Q261.81-36.16 260.69-37.34L260.69-37.34L260.69-37.34Q259.56-38.53 257.03-38.53L257.03-38.53ZM307.13-27.13L307.13-6.16L307.13-6.16Q307.13-4.88 306.64-3.75L306.64-3.75L306.64-3.75Q306.16-2.63 305.33-1.80L305.33-1.80L305.33-1.80Q304.50-0.97 303.39-0.48L303.39-0.48L303.39-0.48Q302.28 0 301 0L301 0L284.47 0L284.47 0Q283.22 0 282.09-0.48L282.09-0.48L282.09-0.48Q280.97-0.97 280.14-1.80L280.14-1.80L280.14-1.80Q279.31-2.63 278.83-3.75L278.83-3.75L278.83-3.75Q278.34-4.88 278.34-6.16L278.34-6.16L278.34-27.13L278.34-27.13Q278.34-28.41 278.83-29.53L278.83-29.53L278.83-29.53Q279.31-30.66 280.14-31.48L280.14-31.48L280.14-31.48Q280.97-32.31 282.09-32.80L282.09-32.80L282.09-32.80Q283.22-33.28 284.47-33.28L284.47-33.28L301-33.28L301-33.28Q302.28-33.28 303.39-32.80L303.39-32.80L303.39-32.80Q304.50-32.31 305.33-31.48L305.33-31.48L305.33-31.48Q306.16-30.66 306.64-29.53L306.64-29.53L306.64-29.53Q307.13-28.41 307.13-27.13L307.13-27.13ZM301-27.13L284.47-27.13L284.47-6.16L301-6.16L301-27.13ZM315.44-27.13L315.44-33.28L323.56-33.28L323.56-43.53L329.72-43.53L329.72-33.28L340.66-33.28L340.66-27.13L329.72-27.13L329.72-6.16L340.66-6.16L340.66 0L329.72 0L329.72 0Q328.47 0 327.34-0.48L327.34-0.48L327.34-0.48Q326.22-0.97 325.38-1.80L325.38-1.80L325.38-1.80Q324.53-2.63 324.05-3.75L324.05-3.75L324.05-3.75Q323.56-4.88 323.56-6.16L323.56-6.16L323.56-27.13L315.44-27.13ZM370.72-44.81L377.13-44.81L377.13-6.41L400.16-6.41L400.16 0L370.72 0L370.72-44.81ZM407.53-33.28L413.69-33.28L413.69 0L407.53 0L407.53-33.28ZM407.22-39.69L407.22-46.09L414-46.09L414-39.69L407.22-39.69ZM423.59-6.16L444.34-6.16L444.34-13.88L429.75-13.88L429.75-13.88Q428.47-13.88 427.34-14.36L427.34-14.36L427.34-14.36Q426.22-14.84 425.39-15.67L425.39-15.67L425.39-15.67Q424.56-16.50 424.08-17.63L424.08-17.63L424.08-17.63Q423.59-18.75 423.59-20.03L423.59-20.03L423.59-27.13L423.59-27.13Q423.59-28.41 424.08-29.53L424.08-29.53L424.08-29.53Q424.56-30.66 425.39-31.48L425.39-31.48L425.39-31.48Q426.22-32.31 427.34-32.80L427.34-32.80L427.34-32.80Q428.47-33.28 429.75-33.28L429.75-33.28L449.22-33.28L449.22-27.13L429.75-27.13L429.75-20.03L444.34-20.03L444.34-20.03Q445.63-20.03 446.73-19.55L446.73-19.55L446.73-19.55Q447.84-19.06 448.69-18.23L448.69-18.23L448.69-18.23Q449.53-17.41 450.02-16.28L450.02-16.28L450.02-16.28Q450.50-15.16 450.50-13.88L450.50-13.88L450.50-6.16L450.50-6.16Q450.50-4.88 450.02-3.75L450.02-3.75L450.02-3.75Q449.53-2.63 448.69-1.80L448.69-1.80L448.69-1.80Q447.84-0.97 446.73-0.48L446.73-0.48L446.73-0.48Q445.63 0 444.34 0L444.34 0L423.59 0L423.59-6.16ZM458.16-27.13L458.16-33.28L466.28-33.28L466.28-43.53L472.44-43.53L472.44-33.28L483.38-33.28L483.38-27.13L472.44-27.13L472.44-6.16L483.38-6.16L483.38 0L472.44 0L472.44 0Q471.19 0 470.06-0.48L470.06-0.48L470.06-0.48Q468.94-0.97 468.09-1.80L468.09-1.80L468.09-1.80Q467.25-2.63 466.77-3.75L466.77-3.75L466.77-3.75Q466.28-4.88 466.28-6.16L466.28-6.16L466.28-27.13L458.16-27.13Z" fill="url(#editing-gradient-gradient)"></path></g></g><style>text {
  font-size: 64px;
  font-family: Arial Black;
  dominant-baseline: central;
  text-anchor: middle;
}</style></svg>