<?xml version="1.0" standalone="no"?>
<!DOCTYPE svg PUBLIC "-//W3C//DTD SVG 20010904//EN"
 "http://www.w3.org/TR/2001/REC-SVG-20010904/DTD/svg10.dtd">
<svg version="1.0" xmlns="http://www.w3.org/2000/svg"
 width="166.000000pt" height="186.000000pt" viewBox="70 80 146.000000 126.000000"
 preserveAspectRatio="xMidYMid meet">

<g transform="translate(0.000000,256.000000) scale(0.100000,-0.100000)"
fill="#ffffff" stroke="none">
<path d="M690 1874 c0 -4 22 -36 48 -73 27 -36 63 -87 80 -113 l32 -47 0 -475
0 -476 145 0 145 0 2 222 3 223 35 0 c32 0 37 -4 72 -65 52 -92 135 -243 177
-322 l36 -68 163 0 163 0 -15 29 c-9 16 -40 69 -69 117 -93 152 -185 322 -179
329 4 3 26 15 49 25 74 33 130 86 165 159 31 61 33 73 33 166 0 93 -2 105 -33
167 -54 110 -137 168 -276 193 -68 11 -167 15 -432 15 -189 0 -344 -3 -344 -6z
m719 -252 c48 -24 73 -62 78 -119 5 -59 -18 -108 -66 -141 -32 -21 -44 -22
-155 -20 l-121 3 -3 134 c-1 74 0 141 2 148 9 21 222 18 265 -5z"/>
</g>
</svg>